<mxfile host="app.diagrams.net" agent="Mozilla/5.0 (Windows NT 10.0; Win64; x64) AppleWebKit/537.36 (KHTML, like Gecko) Chrome/137.0.0.0 Safari/537.36" version="27.1.6">
  <diagram name="Page-1" id="rQCkKrQGrsqy72Xuk41L">
    <mxGraphModel dx="1403" dy="711" grid="1" gridSize="10" guides="1" tooltips="1" connect="1" arrows="1" fold="1" page="1" pageScale="1" pageWidth="850" pageHeight="1100" math="0" shadow="0">
      <root>
        <mxCell id="0" />
        <mxCell id="1" parent="0" />
        <mxCell id="k3VUK0Y2ZyNSgENtGsdb-28" style="edgeStyle=orthogonalEdgeStyle;rounded=0;orthogonalLoop=1;jettySize=auto;html=1;exitX=0.5;exitY=0.5;exitDx=0;exitDy=0;exitPerimeter=0;entryX=0;entryY=0.5;entryDx=0;entryDy=0;" parent="1" source="k3VUK0Y2ZyNSgENtGsdb-1" target="k3VUK0Y2ZyNSgENtGsdb-13" edge="1">
          <mxGeometry relative="1" as="geometry">
            <Array as="points">
              <mxPoint x="289" y="410" />
              <mxPoint x="289" y="332" />
            </Array>
          </mxGeometry>
        </mxCell>
        <mxCell id="k3VUK0Y2ZyNSgENtGsdb-1" value="Bezoeker" style="shape=umlActor;verticalLabelPosition=bottom;verticalAlign=top;html=1;outlineConnect=0;" parent="1" vertex="1">
          <mxGeometry x="170" y="380" width="30" height="60" as="geometry" />
        </mxCell>
        <mxCell id="k3VUK0Y2ZyNSgENtGsdb-31" style="edgeStyle=orthogonalEdgeStyle;rounded=0;orthogonalLoop=1;jettySize=auto;html=1;exitX=0.5;exitY=0.5;exitDx=0;exitDy=0;exitPerimeter=0;entryX=1;entryY=0.5;entryDx=0;entryDy=0;" parent="1" source="k3VUK0Y2ZyNSgENtGsdb-2" target="k3VUK0Y2ZyNSgENtGsdb-7" edge="1">
          <mxGeometry relative="1" as="geometry">
            <Array as="points">
              <mxPoint x="600" y="380" />
              <mxPoint x="600" y="242" />
            </Array>
          </mxGeometry>
        </mxCell>
        <mxCell id="k3VUK0Y2ZyNSgENtGsdb-32" style="edgeStyle=orthogonalEdgeStyle;rounded=0;orthogonalLoop=1;jettySize=auto;html=1;exitX=0.5;exitY=0.5;exitDx=0;exitDy=0;exitPerimeter=0;entryX=1;entryY=0.5;entryDx=0;entryDy=0;" parent="1" source="k3VUK0Y2ZyNSgENtGsdb-2" target="k3VUK0Y2ZyNSgENtGsdb-13" edge="1">
          <mxGeometry relative="1" as="geometry">
            <Array as="points">
              <mxPoint x="600" y="380" />
              <mxPoint x="600" y="332" />
            </Array>
          </mxGeometry>
        </mxCell>
        <mxCell id="k3VUK0Y2ZyNSgENtGsdb-33" style="edgeStyle=orthogonalEdgeStyle;rounded=0;orthogonalLoop=1;jettySize=auto;html=1;exitX=0.5;exitY=0.5;exitDx=0;exitDy=0;exitPerimeter=0;entryX=1;entryY=0.5;entryDx=0;entryDy=0;" parent="1" source="k3VUK0Y2ZyNSgENtGsdb-2" target="k3VUK0Y2ZyNSgENtGsdb-16" edge="1">
          <mxGeometry relative="1" as="geometry">
            <Array as="points">
              <mxPoint x="600" y="380" />
              <mxPoint x="600" y="413" />
            </Array>
          </mxGeometry>
        </mxCell>
        <mxCell id="k3VUK0Y2ZyNSgENtGsdb-34" style="edgeStyle=orthogonalEdgeStyle;rounded=0;orthogonalLoop=1;jettySize=auto;html=1;exitX=0.5;exitY=0.5;exitDx=0;exitDy=0;exitPerimeter=0;entryX=1;entryY=0.5;entryDx=0;entryDy=0;" parent="1" source="k3VUK0Y2ZyNSgENtGsdb-2" target="k3VUK0Y2ZyNSgENtGsdb-19" edge="1">
          <mxGeometry relative="1" as="geometry">
            <Array as="points">
              <mxPoint x="600" y="380" />
              <mxPoint x="600" y="502" />
            </Array>
          </mxGeometry>
        </mxCell>
        <mxCell id="k3VUK0Y2ZyNSgENtGsdb-35" style="edgeStyle=orthogonalEdgeStyle;rounded=0;orthogonalLoop=1;jettySize=auto;html=1;exitX=0.5;exitY=0.5;exitDx=0;exitDy=0;exitPerimeter=0;entryX=1;entryY=0.5;entryDx=0;entryDy=0;" parent="1" source="k3VUK0Y2ZyNSgENtGsdb-2" target="k3VUK0Y2ZyNSgENtGsdb-22" edge="1">
          <mxGeometry relative="1" as="geometry">
            <Array as="points">
              <mxPoint x="600" y="380" />
              <mxPoint x="600" y="585" />
            </Array>
          </mxGeometry>
        </mxCell>
        <mxCell id="ptDnWHCykV4iF-WnVj8z-1" style="edgeStyle=orthogonalEdgeStyle;rounded=0;orthogonalLoop=1;jettySize=auto;html=1;exitX=0.5;exitY=0.5;exitDx=0;exitDy=0;exitPerimeter=0;entryX=1;entryY=0.5;entryDx=0;entryDy=0;" parent="1" source="k3VUK0Y2ZyNSgENtGsdb-2" target="k3VUK0Y2ZyNSgENtGsdb-6" edge="1">
          <mxGeometry relative="1" as="geometry">
            <Array as="points">
              <mxPoint x="600" y="380" />
              <mxPoint x="600" y="158" />
            </Array>
          </mxGeometry>
        </mxCell>
        <mxCell id="k3VUK0Y2ZyNSgENtGsdb-2" value="Geregistreerde gebruiker" style="shape=umlActor;verticalLabelPosition=bottom;verticalAlign=top;html=1;outlineConnect=0;" parent="1" vertex="1">
          <mxGeometry x="700" y="350" width="30" height="60" as="geometry" />
        </mxCell>
        <mxCell id="k3VUK0Y2ZyNSgENtGsdb-9" value="" style="group" parent="1" vertex="1" connectable="0">
          <mxGeometry x="363.01" y="120" width="125" height="83.34" as="geometry" />
        </mxCell>
        <mxCell id="k3VUK0Y2ZyNSgENtGsdb-6" value="" style="ellipse;whiteSpace=wrap;html=1;" parent="k3VUK0Y2ZyNSgENtGsdb-9" vertex="1">
          <mxGeometry x="-10" y="-6.67" width="135" height="90.01" as="geometry" />
        </mxCell>
        <mxCell id="k3VUK0Y2ZyNSgENtGsdb-8" value="Boeken/Authors/Genres&lt;div&gt;&amp;nbsp;bekijken&lt;/div&gt;" style="text;html=1;align=center;verticalAlign=middle;whiteSpace=wrap;rounded=0;" parent="k3VUK0Y2ZyNSgENtGsdb-9" vertex="1">
          <mxGeometry x="32.5" y="26.97353682315884" width="50" height="22.725681715914206" as="geometry" />
        </mxCell>
        <mxCell id="k3VUK0Y2ZyNSgENtGsdb-12" value="" style="group" parent="1" vertex="1" connectable="0">
          <mxGeometry x="378" y="210" width="95" height="63.34" as="geometry" />
        </mxCell>
        <mxCell id="k3VUK0Y2ZyNSgENtGsdb-7" value="" style="ellipse;whiteSpace=wrap;html=1;" parent="k3VUK0Y2ZyNSgENtGsdb-12" vertex="1">
          <mxGeometry width="95" height="63.339999999999996" as="geometry" />
        </mxCell>
        <mxCell id="k3VUK0Y2ZyNSgENtGsdb-10" value="Boekdetails bekijken" style="text;html=1;align=center;verticalAlign=middle;whiteSpace=wrap;rounded=0;" parent="k3VUK0Y2ZyNSgENtGsdb-12" vertex="1">
          <mxGeometry x="23.75" y="19.793749999999996" width="47.5" height="23.752499999999998" as="geometry" />
        </mxCell>
        <mxCell id="k3VUK0Y2ZyNSgENtGsdb-15" value="" style="group" parent="1" vertex="1" connectable="0">
          <mxGeometry x="378" y="300" width="95" height="63.33" as="geometry" />
        </mxCell>
        <mxCell id="k3VUK0Y2ZyNSgENtGsdb-13" value="" style="ellipse;whiteSpace=wrap;html=1;" parent="k3VUK0Y2ZyNSgENtGsdb-15" vertex="1">
          <mxGeometry width="95" height="63.33" as="geometry" />
        </mxCell>
        <mxCell id="k3VUK0Y2ZyNSgENtGsdb-14" value="Registreren" style="text;html=1;align=center;verticalAlign=middle;whiteSpace=wrap;rounded=0;" parent="k3VUK0Y2ZyNSgENtGsdb-15" vertex="1">
          <mxGeometry x="24.145833333333332" y="19.790625000000002" width="47.5" height="23.74875" as="geometry" />
        </mxCell>
        <mxCell id="k3VUK0Y2ZyNSgENtGsdb-18" value="" style="group" parent="1" vertex="1" connectable="0">
          <mxGeometry x="376.75" y="380" width="97.5" height="65" as="geometry" />
        </mxCell>
        <mxCell id="k3VUK0Y2ZyNSgENtGsdb-16" value="" style="ellipse;whiteSpace=wrap;html=1;" parent="k3VUK0Y2ZyNSgENtGsdb-18" vertex="1">
          <mxGeometry width="97.5" height="65" as="geometry" />
        </mxCell>
        <mxCell id="k3VUK0Y2ZyNSgENtGsdb-17" value="Inloggen" style="text;html=1;align=center;verticalAlign=middle;whiteSpace=wrap;rounded=0;" parent="k3VUK0Y2ZyNSgENtGsdb-18" vertex="1">
          <mxGeometry x="23.96875" y="20.3125" width="48.75" height="24.375" as="geometry" />
        </mxCell>
        <mxCell id="k3VUK0Y2ZyNSgENtGsdb-21" value="" style="group" parent="1" vertex="1" connectable="0">
          <mxGeometry x="377.75" y="470" width="95.5" height="63.66" as="geometry" />
        </mxCell>
        <mxCell id="k3VUK0Y2ZyNSgENtGsdb-19" value="" style="ellipse;whiteSpace=wrap;html=1;" parent="k3VUK0Y2ZyNSgENtGsdb-21" vertex="1">
          <mxGeometry width="95.5" height="63.66" as="geometry" />
        </mxCell>
        <mxCell id="k3VUK0Y2ZyNSgENtGsdb-20" value="Uitloggen" style="text;html=1;align=center;verticalAlign=middle;whiteSpace=wrap;rounded=0;" parent="k3VUK0Y2ZyNSgENtGsdb-21" vertex="1">
          <mxGeometry x="23.875" y="19.893749999999997" width="47.75" height="23.8725" as="geometry" />
        </mxCell>
        <mxCell id="k3VUK0Y2ZyNSgENtGsdb-24" value="" style="group" parent="1" vertex="1" connectable="0">
          <mxGeometry x="373.13" y="550" width="104.75" height="69.83" as="geometry" />
        </mxCell>
        <mxCell id="k3VUK0Y2ZyNSgENtGsdb-22" value="" style="ellipse;whiteSpace=wrap;html=1;" parent="k3VUK0Y2ZyNSgENtGsdb-24" vertex="1">
          <mxGeometry width="104.75" height="69.83" as="geometry" />
        </mxCell>
        <mxCell id="k3VUK0Y2ZyNSgENtGsdb-23" value="Favorites&lt;div&gt;pagina bekijken&lt;/div&gt;" style="text;html=1;align=center;verticalAlign=middle;whiteSpace=wrap;rounded=0;" parent="k3VUK0Y2ZyNSgENtGsdb-24" vertex="1">
          <mxGeometry x="26.1875" y="21.821875" width="52.375" height="26.186249999999998" as="geometry" />
        </mxCell>
        <mxCell id="k3VUK0Y2ZyNSgENtGsdb-27" style="edgeStyle=orthogonalEdgeStyle;rounded=0;orthogonalLoop=1;jettySize=auto;html=1;exitX=0.5;exitY=0.5;exitDx=0;exitDy=0;exitPerimeter=0;entryX=0.036;entryY=0.392;entryDx=0;entryDy=0;entryPerimeter=0;" parent="1" source="k3VUK0Y2ZyNSgENtGsdb-1" target="k3VUK0Y2ZyNSgENtGsdb-7" edge="1">
          <mxGeometry relative="1" as="geometry">
            <Array as="points">
              <mxPoint x="290" y="410" />
              <mxPoint x="290" y="235" />
            </Array>
          </mxGeometry>
        </mxCell>
        <mxCell id="ptDnWHCykV4iF-WnVj8z-2" style="edgeStyle=orthogonalEdgeStyle;rounded=0;orthogonalLoop=1;jettySize=auto;html=1;exitX=0.5;exitY=0.5;exitDx=0;exitDy=0;exitPerimeter=0;entryX=0.002;entryY=0.42;entryDx=0;entryDy=0;entryPerimeter=0;" parent="1" source="k3VUK0Y2ZyNSgENtGsdb-1" target="k3VUK0Y2ZyNSgENtGsdb-6" edge="1">
          <mxGeometry relative="1" as="geometry">
            <Array as="points">
              <mxPoint x="290" y="410" />
              <mxPoint x="290" y="151" />
            </Array>
          </mxGeometry>
        </mxCell>
      </root>
    </mxGraphModel>
  </diagram>
</mxfile>
